HIERARCHY
ROOT hip
{
  OFFSET 0 0 0
  CHANNELS 6 Xposition Yposition Zposition Zrotation Yrotation Xrotation
  JOINT abdomen
  {
    OFFSET 0 20.6881 -0.73152
    CHANNELS 3 Zrotation Xrotation Yrotation
    JOINT chest
    {
      OFFSET 0 11.7043 -0.48768
      CHANNELS 3 Zrotation Xrotation Yrotation
      JOINT neck
      {
        OFFSET 0 22.1894 -2.19456
        CHANNELS 3 Zrotation Xrotation Yrotation
        JOINT head
        {
          OFFSET -0.24384 7.07133 1.2192
          CHANNELS 3 Zrotation Xrotation Yrotation
          JOINT leftEye
          {
            OFFSET 4.14528 8.04674 8.04672
            CHANNELS 3 Zrotation Xrotation Yrotation
            End Site
            {
              OFFSET 1 0 0
            }
          }
          JOINT rightEye
          {
            OFFSET -3.6576 8.04674 8.04672
            CHANNELS 3 Zrotation Xrotation Yrotation
            End Site
            {
              OFFSET 1 0 0
            }
          }
        }
      }
      JOINT rCollar
      {
        OFFSET -2.68224 19.2634 -4.8768
        CHANNELS 3 Zrotation Xrotation Yrotation
        JOINT rShldr
        {
          OFFSET -8.77824 -1.95073 1.46304
          CHANNELS 3 Zrotation Xrotation Yrotation
          JOINT rForeArm
          {
            OFFSET -28.1742 -1.7115 0.48768
            CHANNELS 3 Zrotation Xrotation Yrotation
            JOINT rHand
            {
              OFFSET -22.5879 0.773209 7.07136
              CHANNELS 3 Zrotation Xrotation Yrotation
              JOINT rThumb1
              {
                OFFSET -1.2192 -0.487915 3.41376
                CHANNELS 3 Zrotation Xrotation Yrotation
                JOINT rThumb2
                {
                  OFFSET -3.37035 -0.52449 3.41376
                  CHANNELS 3 Zrotation Xrotation Yrotation
                  End Site
                  {
                    OFFSET -1.78271 -1.18214 1.43049
                  }
                }
              }
              JOINT rIndex1
              {
                OFFSET -7.75947 0.938293 5.60832
                CHANNELS 3 Zrotation Xrotation Yrotation
                JOINT rIndex2
                {
                  OFFSET -2.54057 -0.884171 1.56538
                  CHANNELS 3 Zrotation Xrotation Yrotation
                  End Site
                  {
                    OFFSET -1.62519 -0.234802 1.16502
                  }
                }
              }
              JOINT rMid1
              {
                OFFSET -8.24714 1.18213 3.41376
                CHANNELS 3 Zrotation Xrotation Yrotation
                JOINT rMid2
                {
                  OFFSET -3.10165 -0.590103 1.0647
                  CHANNELS 3 Zrotation Xrotation Yrotation
                  End Site
                  {
                    OFFSET -2.48547 -0.328903 0.83742
                  }
                }
              }
              JOINT rRing1
              {
                OFFSET -8.82822 0.546677 1.51678
                CHANNELS 3 Zrotation Xrotation Yrotation
                JOINT rRing2
                {
                  OFFSET -2.60934 -0.819778 -0.0198488
                  CHANNELS 3 Zrotation Xrotation Yrotation
                  End Site
                  {
                    OFFSET -2.33842 -0.294052 0.168128
                  }
                }
              }
              JOINT rPinky1
              {
                OFFSET -8.27202 -0.0477905 -0.4584
                CHANNELS 3 Zrotation Xrotation Yrotation
                JOINT rPinky2
                {
                  OFFSET -1.82734 -0.647385 -0.700984
                  CHANNELS 3 Zrotation Xrotation Yrotation
                  End Site
                  {
                    OFFSET -1.69225 -0.51767 -0.607171
                  }
                }
              }
            }
          }
        }
      }
      JOINT lCollar
      {
        OFFSET 2.68224 19.2634 -4.8768
        CHANNELS 3 Zrotation Xrotation Yrotation
        JOINT lShldr
        {
          OFFSET 8.77824 -1.95073 1.46304
          CHANNELS 3 Zrotation Xrotation Yrotation
          JOINT lForeArm
          {
            OFFSET 28.1742 -1.7115 0.48768
            CHANNELS 3 Zrotation Xrotation Yrotation
            JOINT lHand
            {
              OFFSET 22.5879 0.773209 7.07136
              CHANNELS 3 Zrotation Xrotation Yrotation
              JOINT lThumb1
              {
                OFFSET 1.2192 -0.487915 3.41376
                CHANNELS 3 Zrotation Xrotation Yrotation
                JOINT lThumb2
                {
                  OFFSET 3.37035 -0.52449 3.41376
                  CHANNELS 3 Zrotation Xrotation Yrotation
                  End Site
                  {
                    OFFSET 1.78271 -1.18214 1.43049
                  }
                }
              }
              JOINT lIndex1
              {
                OFFSET 7.75947 0.938293 5.60832
                CHANNELS 3 Zrotation Xrotation Yrotation
                JOINT lIndex2
                {
                  OFFSET 2.54057 -0.884171 1.56538
                  CHANNELS 3 Zrotation Xrotation Yrotation
                  End Site
                  {
                    OFFSET 1.62519 -0.234802 1.16502
                  }
                }
              }
              JOINT lMid1
              {
                OFFSET 8.24714 1.18213 3.41376
                CHANNELS 3 Zrotation Xrotation Yrotation
                JOINT lMid2
                {
                  OFFSET 3.10165 -0.590103 1.0647
                  CHANNELS 3 Zrotation Xrotation Yrotation
                  End Site
                  {
                    OFFSET 2.48547 -0.328903 0.83742
                  }
                }
              }
              JOINT lRing1
              {
                OFFSET 8.82822 0.546677 1.51678
                CHANNELS 3 Zrotation Xrotation Yrotation
                JOINT lRing2
                {
                  OFFSET 2.60934 -0.819778 -0.0198488
                  CHANNELS 3 Zrotation Xrotation Yrotation
                  End Site
                  {
                    OFFSET 2.33842 -0.294052 0.168128
                  }
                }
              }
              JOINT lPinky1
              {
                OFFSET 8.27202 -0.0477905 -0.4584
                CHANNELS 3 Zrotation Xrotation Yrotation
                JOINT lPinky2
                {
                  OFFSET 1.82734 -0.647385 -0.700984
                  CHANNELS 3 Zrotation Xrotation Yrotation
                  End Site
                  {
                    OFFSET 1.69225 -0.51767 -0.607171
                  }
                }
              }
            }
          }
        }
      }
    }
  }
  JOINT rButtock
  {
    OFFSET -8.77824 4.35084 1.2192
    CHANNELS 3 Zrotation Xrotation Yrotation
    JOINT rThigh
    {
      OFFSET 0 -1.70687 -2.19456
      CHANNELS 3 Zrotation Xrotation Yrotation
      JOINT rShin
      {
        OFFSET 0 -36.8199 0.73152
        CHANNELS 3 Zrotation Xrotation Yrotation
        JOINT rFoot
        {
          OFFSET 0.73152 -45.1104 -5.12064
          CHANNELS 3 Zrotation Xrotation Yrotation
          End Site
          {
            OFFSET -1.1221 -3.69964 12.103
          }
        }
      }
    }
  }
  JOINT lButtock
  {
    OFFSET 8.77824 4.35084 1.2192
    CHANNELS 3 Zrotation Xrotation Yrotation
    JOINT lThigh
    {
      OFFSET 0 -1.70687 -2.19456
      CHANNELS 3 Zrotation Xrotation Yrotation
      JOINT lShin
      {
        OFFSET 0 -36.8199 0.73152
        CHANNELS 3 Zrotation Xrotation Yrotation
        JOINT lFoot
        {
          OFFSET -0.73152 -45.1104 -5.12064
          CHANNELS 3 Zrotation Xrotation Yrotation
          End Site
          {
            OFFSET 1.1221 -3.69964 12.103
          }
        }
      }
    }
  }
}
MOTION
Frames:	6
Frame Time:	0.03333
0.0 0.0 0.0 0.0 0.0 0.0 0.0 0.0 0.0 0.0 0.0 0.0 0.0 0.0 0.0 0.0 0.0 0.0 0.0 0.0 0.0 0.0 0.0 0.0 0.0 0.0 0.0 0.0 0.0 0.0 0.0 0.0 0.0 0.0 0.0 0.0 0.0 0.0 0.0 0.0 0.0 0.0 0.0 0.0 0.0 0.0 0.0 0.0 0.0 0.0 0.0 0.0 0.0 0.0 0.0 0.0 0.0 0.0 0.0 0.0 0.0 0.0 0.0 0.0 0.0 0.0 0.0 0.0 0.0 0.0 0.0 0.0 0.0 0.0 0.0 0.0 0.0 0.0 0.0 0.0 0.0 0.0 0.0 0.0 0.0 0.0 0.0 0.0 0.0 0.0 0.0 0.0 0.0 0.0 0.0 0.0 0.0 0.0 0.0 0.0 0.0 0.0 0.0 0.0 0.0 0.0 0.0 0.0 0.0 0.0 0.0 0.0 0.0 0.0 0.0 0.0 0.0 0.0 0.0 0.0 0.0 0.0 0.0 0.0 0.0 0.0 0.0 0.0 0.0 0.0 0.0 0.0
-0.10120000000000001 74.795 -0.2707 -173.061036 69.825606 -168.239963 -0.147684 6.748886 -21.285315 2.364378 -5.92275 37.146627 -15.576244 26.753831 -72.462171 39.331489 -2.207937 46.396711 0.000212 0.0 0.001148 -0.000665 0.0 -0.004453 -5.824546 24.937363 6.989529 -112.288834 -10.574084 122.900546 158.767192 -62.823343 -111.786217 -12.395549 13.688532 -0.518315 6.463827 -6.452607 -0.635552 -143.633876 -52.11507 124.69788 -152.105973 -18.556249 121.368021 -79.149494 57.459253 61.603645 89.035303 -81.393029 59.759387 -5.224043 21.253303 4.614943 -132.481272 54.102998 155.533629 6.531657 0.523486 -6.798137 -149.63784 27.487017 -145.618987 54.377392 81.992676 -17.564196 59.828798 -86.721955 81.628981 -76.953741 50.37824 106.411032 40.879041 10.931098 -120.972736 144.790145 -80.526485 159.448117 166.631641 -4.304744 -89.771474 92.887471 8.689016 -37.242632 164.632742 -40.669861 -122.444176 176.535764 -45.066924 -114.065611 160.888023 -7.337592 -143.346134 -167.278717 -63.976145 -132.404822 71.926354 72.973047 -89.772432 76.651655 83.201873 -85.549489 25.536614 -38.088818 24.595887 151.620223 29.04838 146.850416 179.975743 75.750125 0.019959 -177.619527 37.395198 176.084146 -13.276438 -68.203346 95.846713 -126.451133 -48.70968 -26.565142 -0.0 -0.000484 -0.001092 -3.787913 -40.194731 -0.0 29.137538 71.077791 70.488415 -13.4788 -74.177596 -92.458787
-0.1694 74.6566 -0.4064 -173.687191 69.73094 -169.001224 -1.194207 7.114416 -0.0 0.96227 -6.566636 15.832563 -15.662763 27.031009 -73.929941 39.493472 -1.319468 47.571025 -0.00147 -0.0 0.000151 0.004187 -0.0 -0.000666 -155.537597 -3.733256 161.885184 -41.250004 25.794285 -25.189242 -167.519995 -41.335721 -84.899147 -6.71088 -4.780442 -2.98369 -6.582234 6.344399 1.36558 74.25651 -76.104224 6.104213 -138.493462 4.895978 114.864213 -5.245928 24.656108 -2.686136 -8.416573 20.880343 5.645797 -172.006398 -31.357535 144.089988 -145.119601 0.310338 -179.225242 -141.962616 -56.352631 -164.107605 1.482299 4.003802 1.359613 -128.835097 -29.160525 -127.093624 -0.022807 -0.138619 0.031309 123.912826 29.635403 150.66286 6.595692 60.515753 125.254988 140.081507 31.156658 -126.82777 93.744424 37.964064 -53.548018 -32.123336 -33.550488 -23.210298 151.679579 -17.76491 -121.236663 15.226739 39.291429 -5.496533 -5.892138 -18.352154 2.543409 7.372938 26.184823 -6.036641 145.100872 -1.521903 178.651775 -12.074746 52.868035 2.695847 145.174359 12.066584 141.824605 25.704506 -40.243061 27.031616 179.999355 75.75009 0.000441 -177.801715 37.305442 176.37591 -44.826801 -64.317252 -116.577294 92.56001 62.971628 165.174424 -179.99866 75.75009 -0.001103 176.035818 33.204896 -172.788026 -9.019583 -67.404083 146.52331 68.98762 25.683696 17.796173
-0.16119999999999998 74.5156 -0.5299 -174.161059 69.668148 -169.486522 -3.039028 6.368872 47.453993 -2.375326 -5.880364 -31.638144 5.26913 22.825879 71.707557 -36.201727 1.053074 -100.858873 -0.000304 -0.0 0.000208 -0.000304 -0.0 0.000208 0.023027 -0.138558 -0.031702 80.571481 -3.179246 29.317118 -147.516699 -87.562339 84.312996 -177.317337 -6.358471 143.107855 -0.442434 0.434968 0.068883 -138.669816 -42.675427 119.010997 15.557866 -27.95084 -5.74935 -141.700233 10.672407 108.135963 -36.036594 51.723297 29.831517 -4.826643 21.329956 4.519985 -71.927084 72.973123 89.772399 5.190428 26.572817 -0.913939 15.294672 53.352883 12.047919 -82.776824 -53.899663 -81.466513 -0.022921 -0.138761 0.029917 110.733548 6.454611 152.961065 -31.944485 15.314387 146.527089 102.252304 48.93172 -87.055704 78.030752 38.689058 -42.412642 132.388282 -23.446117 -81.980144 -19.567547 -35.040584 5.987497 174.36629 -35.94186 -107.718987 0.969199 2.77959 -0.553591 162.981262 -3.910053 -143.260628 145.110532 -0.626692 178.930249 148.063738 -43.028595 170.605436 144.860839 11.078932 141.543891 -2.614158 0.731592 1.761828 -179.984917 75.748984 -0.010319 -177.996131 39.447702 -1.242767 45.187045 61.295952 61.762861 -12.475113 38.197356 -123.593963 0.004665 0.000987 0.004665 -4.947618 -40.126912 -7.65023 -29.521271 69.410815 -69.855391 -4.86515 59.306412 119.660559
-0.1031 74.3965 -0.6233 -174.048998 69.615754 -169.517311 -0.889912 2.41849 -171.557257 -0.364303 1.736469 -172.594079 -12.103878 20.291558 -31.032398 22.446943 -23.693075 7.837405 -0.00028 -0.0 0.001299 -0.00028 -0.0 0.001299 4.239828 -44.74281 -8.646612 75.186216 4.81084 -13.018368 168.643325 75.941527 -75.632104 -10.547788 5.104364 -1.876633 -9.97218 9.455364 2.331904 0.372458 0.908395 5.947289 -10.572108 15.013538 6.863846 15.817641 -8.725469 -1.434875 -160.673108 -6.667506 143.246485 -13.64565 36.286817 11.085179 -145.112682 -0.356477 -179.016864 9.664273 -6.442343 -9.842163 -7.143536 -15.70737 -6.728678 -77.540947 -54.707863 -77.495573 142.973755 39.431758 -147.390383 -70.474369 -19.592349 -86.875089 6.881248 -32.691452 -94.760204 18.449611 -61.053003 19.351328 90.495933 38.313437 -51.261049 -66.131488 -45.818202 -29.191971 108.42709 34.162398 -91.744298 -94.568387 -67.57576 -45.980909 158.522841 -0.191627 -142.146343 164.021633 -7.050497 -143.189581 145.120276 0.267812 179.212328 138.618929 -60.729376 160.665086 1.179638 -2.985013 1.092419 147.784356 13.373397 144.097053 0.0 0.000102 -3.6e-05 1.622098 -38.622036 -180.0 -18.218853 -70.09093 80.904308 70.149441 26.470343 31.608873 179.999657 75.74954 0.000302 175.689964 33.27527 -149.792635 -71.546086 -60.030811 -83.128018 13.02863 47.940633 -155.915448
-0.0466 74.2865 -0.6828 -173.364936 69.5639 -169.101717 0.384764 3.005184 -146.087899 1.427651 1.446236 161.892054 6.643478 27.401353 97.818829 -37.514443 17.946201 -122.164354 -0.001264 -0.0 0.001736 -0.001528 -0.0 0.002613 -8.481851 32.161299 9.928184 -111.618378 -7.111204 118.423554 170.621301 -62.454659 -101.60877 -10.729519 5.017757 -1.881338 -93.743818 37.963708 53.548408 32.120628 -33.552386 23.206748 10.210494 -18.050978 -4.563455 -139.379679 14.536223 106.336183 34.58704 -70.943949 9.313745 -33.614223 54.473958 28.148108 -145.119022 0.226793 -179.199179 11.908049 29.602323 -5.641882 -132.045707 -18.855615 -129.579955 -84.659702 -52.154103 -84.640838 29.828904 58.183995 -32.233834 -71.831254 8.261096 -28.928862 2.049251 -11.509221 -99.325525 17.841146 -57.304908 17.22806 -6.275643 -6.263139 0.627194 120.233564 -5.407293 -108.704908 1.396875 2.232079 -0.805487 21.634587 34.894968 -15.891799 -173.123445 -66.297724 -137.615048 11.019635 32.163836 -8.831305 -0.001096 0.063892 -0.01926 149.985882 38.867025 -164.83454 1.148823 -2.914404 1.066404 73.776421 -54.963154 73.537569 0.001858 0.001709 0.000929 1.484928 -38.464464 -177.613614 -25.492373 -69.063494 74.633602 -118.738149 -60.100671 -26.975766 -179.99336 75.749656 -0.004543 174.679201 33.256917 162.278321 54.740998 -71.765712 6.192591 -177.916046 1.808909 95.474337
